<svg xmlns="http://www.w3.org/2000/svg" viewBox="0 0 439.67 87.82"><defs><style>.cls-1{fill:#231f20;}</style></defs><g id="Layer_2" data-name="Layer 2"><g id="Layer_1-2" data-name="Layer 1"><polygon class="cls-1" points="26.95 2.48 26.95 63.44 62.95 63.44 62.95 85.3 0 85.3 0 2.48 26.95 2.48"/><rect class="cls-1" x="74.43" y="2.48" width="26.94" height="82.82"/><polyline class="cls-1" points="180.88 63.44 180.88 85.3 117.5 85.3 117.5 2.48 144.44 2.48 144.44 63.44 144.44 63.44 180.88 63.44"/><polygon class="cls-1" points="169.18 2.48 199.08 2.48 213.13 30.53 227.49 2.48 256.42 2.48 226.6 53.72 226.6 85.3 199.08 86.18 199.08 53.94 169.18 2.48"/><path class="cls-1" d="M318.26,57.69c-2.87,6.63-7.51,9.94-17.59,10.38S286.45,54.6,286.45,44.33s4-24.18,15.68-24,13.7,10.16,13.7,10.16l24.73-.22C337.69,7.78,322.23.05,300.7.05s-42.74,15-41.41,45.5,18.33,42.18,39.09,42.18,25.51-10.38,25.51-10.38v8h18.22V39.58H305.67V57.69Z"/><line class="cls-1" x1="318.26" y1="57.69" x2="305.67" y2="57.69"/><path class="cls-1" d="M396.51.05s-43.43.29-43.14,44.28,43.14,43.4,43.14,43.4,42.26,4.2,43.15-43.4S396.51.05,396.51.05Zm.74,66.85s-17.67,2.35-17.08-23S395.78,21,395.78,21c11.19,0,17.08,2.35,17.08,25S397.25,66.9,397.25,66.9Z"/></g></g></svg>